HIERARCHY
ROOT Hips
{
	OFFSET -3.958830 18.904000 13.208200
	CHANNELS 6 Xposition Yposition Zposition Zrotation Yrotation Xrotation 
	JOINT LHipJoint
	{
		OFFSET 0.000000 0.000000 0.000000
		CHANNELS 3 Zrotation Yrotation Xrotation
		JOINT LeftUpLeg
		{
			OFFSET 1.800000 -1.400000 0.085000
			CHANNELS 3 Zrotation Yrotation Xrotation
			JOINT LeftLeg
			{
				OFFSET 2.215000 -6.000000 0.000000
				CHANNELS 3 Zrotation Yrotation Xrotation
				JOINT LeftFoot
				{
					OFFSET 2.500000 -6.900000 0.000000
					CHANNELS 3 Zrotation Yrotation Xrotation
					JOINT LeftToeBase
					{
						OFFSET 0.200000 -0.500000 1.950000
						CHANNELS 3 Zrotation Yrotation Xrotation
						End Site
						{
							OFFSET 0.000000 0.000000 0.000000
						}
					}
				}
			}
		}
	}
	JOINT RHipJoint
	{
		OFFSET 0.000000 0.000000 0.000000
		CHANNELS 3 Zrotation Yrotation Xrotation
		JOINT RightUpLeg
		{
			OFFSET -1.800000 -1.400000 0.085000
			CHANNELS 3 Zrotation Yrotation Xrotation
			JOINT RightLeg
			{
				OFFSET -2.215000 -6.000000 0.000000
				CHANNELS 3 Zrotation Yrotation Xrotation
				JOINT RightFoot
				{
					OFFSET -2.500000 -6.900000 0.000000
					CHANNELS 3 Zrotation Yrotation Xrotation
					JOINT RightToeBase
					{
						OFFSET -0.200000 -0.500000 1.950000
						CHANNELS 3 Zrotation Yrotation Xrotation
						End Site
						{
							OFFSET 0.000000 0.000000 0.000000
						}
					}
				}
			}
		}
	}
	JOINT LowerBack
	{
		OFFSET 0.000000 0.000000 0.000000
		CHANNELS 3 Zrotation Yrotation Xrotation
		JOINT Spine
		{
			OFFSET -0.087000 1.940000 -0.288900
			CHANNELS 3 Zrotation Yrotation Xrotation
			JOINT Spine1
			{
				OFFSET 0.000000 1.950000 0.060000
				CHANNELS 3 Zrotation Yrotation Xrotation
				JOINT Neck
				{
					OFFSET 0.000000 0.000000 0.000000
					CHANNELS 3 Zrotation Yrotation Xrotation
					JOINT Neck1
					{
						OFFSET 0.000000 1.600000 0.340000
						CHANNELS 3 Zrotation Yrotation Xrotation
						JOINT Head
						{
							OFFSET 0.000000 1.667000 -0.240000
							CHANNELS 3 Zrotation Yrotation Xrotation
							End Site
							{
								OFFSET 0.000000 0.000000 0.000000
							}
						}
					}
				}
				JOINT LeftShoulder
				{
					OFFSET 0.000000 0.000000 0.000000
					CHANNELS 3 Zrotation Yrotation Xrotation
					JOINT LeftArm
					{
						OFFSET 2.700000 1.550000 -0.730000
						CHANNELS 3 Zrotation Yrotation Xrotation
						JOINT LeftForeArm
						{
							OFFSET 5.450000 0.000000 0.000000
							CHANNELS 3 Zrotation Yrotation Xrotation
							JOINT LeftHand
							{
								OFFSET 3.450000 0.000000 0.000000
								CHANNELS 3 Zrotation Yrotation Xrotation
								JOINT LeftHandIndex1
								{
									OFFSET 0.750000 0.000000 0.000000
									CHANNELS 3 Zrotation Yrotation Xrotation
									End Site
									{
										OFFSET 0.000000 0.000000 0.000000
									}
								}
							}
						}
					}
				}
				JOINT RightShoulder
				{
					OFFSET 0.000000 0.000000 0.000000
					CHANNELS 3 Zrotation Yrotation Xrotation
					JOINT RightArm
					{
						OFFSET -2.700000 1.550000 -0.730000
						CHANNELS 3 Zrotation Yrotation Xrotation
						JOINT RightForeArm
						{
							OFFSET -5.450000 0.000000 0.000000
							CHANNELS 3 Zrotation Yrotation Xrotation
							JOINT RightHand
							{
								OFFSET -3.450000 0.000000 0.000000
								CHANNELS 3 Zrotation Yrotation Xrotation
								JOINT RightHandIndex1
								{
									OFFSET -0.750000 0.000000 0.000000
									CHANNELS 3 Zrotation Yrotation Xrotation
									End Site
									{
										OFFSET 0.000000 0.000000 0.000000
									}
								}
							}
						}
					}
				}
			}
		}
	}
}
MOTION
Frames: 11
Frame Time: 0.016667
0.924720 15.990970 -3.145330 -2.785439 -11.747487 12.722942 -16.184149 11.290881 5.879845 38.780497 3.506913 -37.395477 -17.495348 14.604792 24.554104 1.084552 8.854242 1.483858 0.018490 -0.265800 -0.014530 18.118564 -5.609260 4.467043 -17.690903 15.141562 -45.984128 25.128888 -19.488819 44.186991 -1.343192 -8.473899 1.562263 -0.549300 0.196360 0.274210 -2.297069 -6.940420 -9.991498 27.938735 -22.344182 41.853828 -13.092501 -0.236016 -34.738406 8.633434 -15.060247 -11.054651 -31.028371 12.706574 30.611991 -5.172880 11.627880 4.318230 -7.864935 24.146089 -3.292155 -52.497627 42.859915 -18.968792 24.291313 -7.420678 0.083916 -3.776624 2.751160 0.383650 -0.132690 0.199970 0.297290 -9.245366 -3.048628 7.860473 36.544659 -6.190420 -9.668390 -132.654264 -3.230037 16.286382 3.187902 -2.541767 0.144460 -0.129810 -0.161570 0.190950 
0.883090 16.036840 -3.178220 -2.449131 -11.695942 12.451201 -16.160612 11.082206 6.095125 38.962454 3.605528 -38.710243 -19.129059 15.635069 26.356619 1.157807 9.195005 1.339333 0.114350 -0.152610 0.074340 18.155991 -5.690768 4.411273 -16.600626 15.768817 -45.423048 23.718235 -18.173038 43.982013 -1.311052 -8.112424 1.632580 -0.502720 0.090320 0.282740 -2.388124 -6.519531 -10.082302 26.230278 -20.911589 42.509330 -13.414073 0.398294 -34.900839 8.191754 -14.554177 -11.303428 -30.796838 12.353657 33.255043 -4.062690 10.546730 2.483540 -8.172593 21.737905 -1.732432 -52.384184 41.372610 -18.689618 24.607194 -6.593593 0.136626 -3.691133 2.835736 0.410820 -0.196310 0.268360 0.286820 -7.709258 -1.366613 6.447114 38.216367 -6.321147 -12.001667 -138.635913 -10.184923 36.068949 3.315383 -2.675546 0.196760 -0.173930 -0.220760 0.175980 
0.832360 16.114640 -3.228720 -1.469997 -11.700413 10.583703 -16.133961 11.057595 6.250929 38.296439 3.196223 -39.860585 -20.640602 17.193416 29.968666 1.283918 9.680247 1.172797 0.189680 -0.058830 0.141990 18.157996 -5.920911 4.239808 -14.797110 15.928796 -43.512608 20.775892 -16.539423 44.691146 -1.277832 -7.722991 1.744212 -0.474580 0.004140 0.280910 -2.413941 -6.195858 -10.114064 22.394609 -19.433480 45.298258 -12.490481 0.915867 -35.007620 8.016373 -14.139160 -12.318297 -31.790289 12.343639 37.023653 -3.398790 8.929030 0.100200 -8.251947 18.011978 0.448606 -54.149586 39.290737 -18.646460 23.814547 -3.824199 0.598481 -3.603290 2.850513 0.460350 -0.267740 0.355410 0.296270 -6.555970 1.893824 5.655430 39.083665 -5.378675 -14.433581 -143.594572 -15.949306 54.268313 3.441163 -2.688390 0.236690 -0.167680 -0.274960 0.176370 
0.803800 16.181890 -3.285180 -0.639969 -11.869726 8.020272 -16.130091 11.131732 6.366414 36.880614 2.621439 -41.249439 -21.465830 19.439661 35.421441 1.457005 10.402458 0.935666 0.223880 -0.023420 0.171800 18.129948 -6.172228 3.995622 -12.568680 15.763377 -40.838564 17.630684 -14.884786 45.539383 -1.217723 -7.402718 1.829121 -0.466310 -0.052230 0.300620 -2.363944 -6.007960 -10.122245 17.901684 -17.621952 49.348041 -10.747602 1.802128 -34.400705 8.090558 -13.843735 -12.720119 -31.597214 11.847054 38.960717 -4.013020 7.896750 -1.756450 -9.263963 15.834940 0.817871 -54.411403 36.226531 -17.844625 24.009159 -2.069768 0.862134 -3.574260 2.910858 0.475490 -0.299330 0.387510 0.277310 -5.516958 4.122518 6.014951 37.569771 -3.906453 -14.510018 -145.206233 -14.913317 51.683678 3.399882 -2.735763 0.272800 -0.194090 -0.277390 0.167890 
0.793020 16.257640 -3.350450 -0.358853 -12.083347 4.557130 -16.117477 11.348967 6.365804 34.957398 1.920601 -41.419855 -21.718515 21.577032 40.636237 1.624550 11.145218 0.730171 0.191120 -0.079100 0.148630 18.093244 -6.507139 3.649841 -9.339205 15.261551 -36.904320 13.610086 -12.786339 46.370481 -1.103919 -6.986282 1.949806 -0.471030 -0.046100 0.266860 -2.305099 -5.907227 -10.000200 13.822571 -16.164123 54.840485 -9.127166 2.931130 -33.291992 8.118370 -14.477738 -13.317154 -32.968588 11.717124 38.356882 -2.598240 5.729630 -3.517190 -10.008382 14.624467 0.523469 -53.895507 32.465959 -16.505661 22.419226 -1.664839 0.825379 -3.543637 2.899774 0.499810 -0.330320 0.355300 0.246050 -4.923420 6.408839 7.343375 34.452716 -2.676423 -13.829555 -143.407274 -10.759326 34.884877 3.261527 -2.717835 0.232980 -0.166310 -0.235460 0.154030 
0.774710 16.328600 -3.438660 0.146129 -12.671284 -0.126594 -16.034603 11.599932 6.211158 32.453804 0.857717 -39.932910 -21.624863 23.633223 45.987932 1.823324 11.885206 0.519156 0.179560 -0.100690 0.154210 18.094559 -6.997490 3.300977 -6.220394 14.321786 -32.249770 9.828636 -10.907907 47.368995 -1.033754 -6.707722 2.038501 -0.468220 -0.071240 0.228010 -2.377839 -5.545549 -9.800433 9.593535 -14.044087 60.985373 -7.813596 2.879530 -29.121196 8.582097 -14.927630 -13.761227 -33.665944 11.552834 36.462615 -2.029710 3.995720 -8.096430 -11.160294 12.185493 0.294880 -53.339641 27.580054 -15.204460 19.669201 -1.874329 0.611726 -3.494482 2.898216 0.515800 -0.373310 0.328190 0.188660 -4.893624 8.881324 8.519719 32.949665 -1.565969 -14.377697 -140.192155 -4.463337 9.220047 3.033280 -2.603413 0.217420 -0.137890 -0.191360 0.131710 
0.762810 16.402860 -3.548360 0.830807 -13.077078 -6.286672 -15.897838 11.990605 5.920958 29.099275 -0.569377 -36.723956 -21.161158 25.132652 50.966814 2.024981 12.608752 0.353187 0.153620 -0.156390 0.120640 18.098977 -7.683688 2.856462 -3.728452 12.459041 -25.957323 6.585602 -9.250583 47.324686 -0.974443 -6.481469 2.108287 -0.469640 -0.038340 0.231730 -2.492479 -5.136339 -9.463985 6.117111 -11.460111 67.246423 -6.704792 1.974257 -21.236377 9.374504 -15.537048 -15.130645 -35.092656 11.424176 33.026267 -0.743480 1.152880 -11.881290 -9.678095 7.759223 1.268266 -55.782744 22.089056 -15.001731 15.372060 -3.730059 0.068242 -3.447566 2.922024 0.536370 -0.382340 0.291310 0.168570 -7.645179 13.178361 10.116017 31.252593 -1.299276 -17.123022 -134.514492 2.543765 -18.048496 2.819555 -2.414179 0.185920 -0.103970 -0.136970 0.131040 
0.753700 16.461080 -3.666450 1.234631 -12.276508 -12.255074 -15.654236 12.120384 5.535518 25.083840 -2.256556 -33.198799 -19.901246 25.882496 55.751054 2.242603 13.153828 0.233561 0.184580 -0.092970 0.129560 18.194425 -8.480145 2.634114 -2.726522 10.799029 -21.152666 4.992571 -8.990829 48.501045 -1.027095 -6.782450 2.013405 -0.419260 -0.059290 0.248970 -2.883827 -4.078569 -9.105830 5.335944 -10.563579 71.518677 -8.455882 -0.494289 -9.649873 9.779142 -15.242123 -15.922556 -32.536678 9.455240 28.575556 -0.440600 -0.896520 -16.053810 -4.845256 2.742826 3.264961 -56.321741 16.202486 -15.187699 7.332891 -9.106728 -0.809101 -3.346820 3.032653 0.476510 -0.361670 0.272660 0.151080 -13.121749 16.213329 10.737206 32.134227 -1.649849 -21.613258 -124.954205 11.726296 -38.948682 2.732034 -2.300732 0.218100 -0.125720 -0.142640 0.136880 
0.732720 16.508680 -3.746240 1.191114 -11.715463 -15.560759 -15.496686 12.130882 5.189590 21.245655 -3.185511 -30.991224 -18.224590 26.049436 59.103604 2.374294 13.471983 0.175476 0.244570 -0.008900 0.234820 18.260080 -8.957826 2.679364 -2.100993 10.390550 -19.388028 4.433869 -9.101799 50.004627 -1.135819 -7.112978 1.883885 -0.370040 -0.113120 0.289240 -3.147352 -3.244449 -8.900977 5.138261 -8.969561 72.850018 -10.112653 -0.892683 0.093320 9.621687 -13.555768 -15.831839 -26.924667 5.949432 27.009036 -1.606830 -1.810020 -19.853600 -0.577383 -0.832706 5.251130 -51.763453 13.294135 -16.192945 -5.984356 -18.243401 -1.002085 -3.146881 3.196441 0.449280 -0.341180 0.311170 0.123980 -16.999980 16.738445 10.393884 30.100971 -5.104351 -24.971050 -111.906253 22.777208 -46.059514 2.763026 -2.203463 0.253880 -0.147130 -0.183830 0.111960 
0.718140 16.551630 -3.816510 0.295232 -11.985595 -17.604297 -15.396832 12.212120 4.751894 17.970616 -3.206612 -28.772411 -15.776136 25.230590 60.907243 2.295700 13.483330 0.153213 0.268620 0.020140 0.311240 18.300647 -9.194959 2.887633 -1.814663 11.038958 -18.855735 6.071164 -10.022581 51.014700 -1.230132 -7.507039 1.731668 -0.312130 -0.131320 0.308500 -3.314854 -2.725137 -8.736074 5.222028 -7.628936 74.299743 -11.488140 -0.312759 5.998158 9.368081 -11.729129 -15.380133 -21.499398 3.709546 25.516150 -2.556350 -1.733510 -21.801700 3.048608 -1.586518 6.134169 -44.821031 13.614791 -17.619410 -25.618636 -27.773238 1.592377 -2.981874 3.428208 0.459920 -0.296540 0.313430 0.076710 -20.294961 15.219481 9.992539 25.864155 -8.874649 -25.713808 -100.294582 35.954677 -48.736507 2.733235 -1.975279 0.223080 -0.139220 -0.173430 0.052720 
0.692360 16.591710 -3.863640 -1.500204 -12.035022 -17.024384 -15.269722 12.121763 4.345963 15.249510 -3.001472 -28.519327 -12.647931 23.196471 61.193477 2.169138 12.955115 0.274307 0.360140 0.144100 0.411630 18.400532 -9.307026 3.317670 -1.932780 12.603741 -21.340877 9.127476 -11.603500 51.935343 -1.415369 -7.895381 1.584500 -0.273130 -0.220340 0.348790 -3.629380 -1.976053 -8.680949 7.481173 -8.010565 73.044290 -13.606917 0.076010 9.429977 9.146977 -10.294854 -14.874639 -18.697074 1.995583 26.678816 -3.360170 -1.819270 -26.610380 3.704779 -1.925557 6.366479 -35.295758 14.368275 -16.543327 -45.991545 -34.411525 7.371078 -2.837117 3.614261 0.503100 -0.338050 0.419680 0.082890 -20.758432 13.510849 9.221869 19.756214 -14.129261 -24.413848 -94.722758 51.539607 -54.239346 2.517951 -1.408674 0.276980 -0.150770 -0.238070 0.041180 
